<svg xmlns="http://www.w3.org/2000/svg" viewBox="0 0 198.18 376.84"><defs><style>.a{fill:#73c05c;}</style></defs><path class="a" d="M136.65,0V21.75h4.45c9.2.1,18.41-.11,27.59.39,15,.8,28,13.88,29.07,28.78.26,3.54.42,7.1.42,10.65V340.85c0,11.82-3.49,21.89-13.17,29.29a32.51,32.51,0,0,1-20.23,6.63c-43.8.05-87.59.13-131.39,0C13.71,376.67.14,362.4.05,342c-.1-24,0-48.08,0-72.12Q0,163.71,0,57.56c0-11.68,3.46-21.66,13-29,6.39-4.95,13.72-6.82,21.66-6.79H60.1V0ZM21.82,199.46V341.83c0,9.23,3.93,13.19,13.2,13.2H163c9.49,0,13.35-3.91,13.35-13.43V56.87c0-9.45-4-13.42-13.39-13.42H35.3c-9.66,0-13.52,3.9-13.52,13.65Q21.81,128.28,21.82,199.46Z"/><path class="a" d="M33.74,163.76V116.59h130.6v47.17Z"/><path class="a" d="M164.42,235.33v47.14H33.91V235.33Z"/><path class="a" d="M33.73,341.92V294.74H164.34v47.18Z"/><path class="a" d="M164.47,176v46.93H33.84V176Z"/></svg>