<svg xmlns="http://www.w3.org/2000/svg" viewBox="0 0 392.36 357.35"><defs><style>.a{fill:#aaa;}</style></defs><path class="a" d="M0,167.18c1-6.91,1.69-13.88,3-20.72C13.36,93.4,41.77,52.78,87.89,24.79,114.49,8.66,143.63.58,174.78,0c1,0,2,0,3.06,0,.23,0,.44.22.85.44V25.27C129.94,26.63,89.63,45.41,59,83.3c-23.47,29.08-34.67,62.88-33.32,100.21,3,83.25,69,145.06,146.4,148.24a152.91,152.91,0,0,0,158.43-132c-4.34,4.37-9,9.09-13.27,13.4L298,194.05c1.47-1.25,3.62-2.85,5.51-4.72,10.43-10.33,20.77-20.75,31.18-31.1,6.92-6.89,13.78-6.86,20.69-.07,12.38,12.16,24.78,24.28,37,36.25l-18.71,18.65-16.49-17.67c-.9,5.69-1.54,10-2.3,14.38a174.37,174.37,0,0,1-38.3,82.66C289,325.59,254.06,347,211.69,354.24c-65.91,11.3-122.11-8.17-167.15-57.75C19.07,268.45,5.22,234.85.9,197.27c-.27-2.37-.6-4.74-.9-7.11Z"/><path class="a" d="M132.13,101.49l40-14.44a4.71,4.71,0,0,1,1.45-.34c10.35,0,20.71,0,31.31,0V244.42H169V124.78l-28.06,7.6C138,122.1,135.12,112,132.13,101.49Z"/></svg>