<svg xmlns="http://www.w3.org/2000/svg" viewBox="0 0 204.41 408.81"><defs><style>.a{fill:#ff4099;}</style></defs><path class="a" d="M94.13,408.81c-9.65-2.34-19.75-3.54-28.86-7.22C29.73,387.26,7.9,361,1.57,323.08-4.28,288.12,6.36,258,31.5,233a8.51,8.51,0,0,0,2.58-6.69Q34,148.3,34,70.25c0-24,9.34-43.3,28.67-57.59,39.89-29.48,99.6-4.54,106.51,44.49a105.16,105.16,0,0,1,1,14.29q.09,77.25,0,154.49a9.75,9.75,0,0,0,3.18,7.64C211.5,271.32,215,329.5,181.2,371.21,164,392.48,141.29,404.62,114,408.06c-1.31.16-2.59.5-3.88.75Zm42.11-252.75V75.46c0-3.72-.18-7.44-.49-11.15-2-22.76-27.75-37.14-48.2-26.82C73.87,44.4,68,55.93,68,70.89c0,53.48-.29,107,.25,160.42.1,10.3-2.64,17.17-10.55,24-20,17.29-27.59,39.86-22,65.74,7.88,36.1,40.57,58,77.2,52.7,44.42-6.41,70.6-56.7,50.55-96.83-5.8-11.63-14.71-20.41-24.39-28.6a7.57,7.57,0,0,1-2.93-6.47c.1-28.59.06-57.19.06-85.79Z"/><path class="a" d="M85.14,136.46h34v4.72q0,56.48-.07,112.94c0,3.07.78,4.58,3.75,5.9C143,269,155.15,289.79,153,311.1a51.23,51.23,0,0,1-40.25,45.47c-24.92,5.59-50.42-8.88-59-33.46-8.34-23.94,2.65-51.13,25.59-62,4.6-2.18,5.9-4.56,5.87-9.43C85,215,85.1,178.25,85.1,141.53Z"/></svg>